Patient4_TMGait_0pt3_03_right_20_GRF.mot
version=1
nRows=32
nColumns=19
inDegrees=no
endheader
time	F1x	F1y	F1z	M1x	M1y	M1z	F2x	F2y	F2z	M2x	M2y	M2z	EC1x	EC1y	EC1z	EC2x	EC2y	EC2z
37.52	-3.0397	912.429	61.2484	-323.8811	-53.43	851.8549	-8.6241	11.3921	-2.5517	4.2197	5.3743	9.878	-0.0592	0.0182	-0.0073	-0.0462	0.0165	0.9585
37.5374	-3.2584	914.0708	61.9498	-323.913	-53.6438	852.1172	-5.919	8.7229	-1.8143	3.2045	3.749	7.7531	-0.0592	0.0182	-0.0073	-0.0462	0.0165	0.9585
37.5547	-3.2871	910.7963	62.4567	-322.1982	-53.5428	847.4534	-3.5642	6.4211	-1.1793	2.3278	2.3438	5.9132	-0.0592	0.0182	-0.0073	-0.0462	0.0165	0.9585
37.5721	-2.9563	900.9369	62.5885	-318.1876	-52.9442	836.344	-1.732	4.6502	-0.69224	1.6531	1.2606	4.4953	-0.0592	0.0182	-0.0073	-0.0462	0.0165	0.9585
37.5894	-2.1135	883.8333	62.1997	-311.6765	-51.6995	818.2243	-0.44292	3.4173	-0.35397	1.1832	0.50458	3.5052	-0.0592	0.0182	-0.0073	-0.0462	0.0165	0.9585
37.6068	-0.66056	860.0192	61.2199	-302.8705	-49.743	793.6438	0.36547	2.6419	-0.14314	0.88652	0.031746	2.8762	-0.0592	0.0182	-0.0073	-0.0462	0.0165	0.9585
37.6241	1.4248	831.1419	59.6642	-292.3589	-47.1076	764.1834	0.79286	2.1981	-0.036031	0.71719	-0.21437	2.5085	-0.0592	0.0182	-0.0073	-0.0462	0.0165	0.9585
37.6415	4.1024	799.7061	57.6266	-281.0233	-43.9118	732.1854	0.94637	1.938	-0.0076626	0.62256	-0.29339	2.2756	-0.0592	0.0182	-0.0073	-0.0462	0.0165	0.9585
37.6589	7.3038	768.6858	55.27	-269.901	-40.3365	700.392	0.92247	1.7096	-0.033195	0.54775	-0.25799	2.0448	-0.0592	0.0182	-0.0073	-0.0462	0.0165	0.9585
37.6762	10.9343	741.0308	52.8108	-260.0157	-36.6063	671.5036	0.80086	1.3671	-0.088414	0.43782	-0.15426	1.6871	-0.0592	0.0182	-0.0073	-0.0462	0.0165	0.9585
37.6936	14.8623	719.2056	50.4785	-252.2188	-32.9596	647.7698	0.64395	0.7828	-0.1496	0.24328	-0.027668	1.0817	-0.0592	0.0182	-0.0073	-0.0462	0.0165	0.9585
37.7109	18.9376	704.8429	48.4845	-247.0714	-29.6206	630.68	0.49973	-0.14202	-0.19719	-0.073836	0.080908	0.13048	-0.0592	0.0182	-0.0073	-0.0462	0.0165	0.9585
37.7283	23.0176	698.5742	46.9993	-244.7848	-26.77	620.8075	0.40819	-1.4585	-0.21511	-0.53247	0.13602	-1.2197	-0.0592	0.0182	-0.0073	-0.0462	0.0165	0.9585
37.7456	26.9726	699.9967	46.132	-245.2066	-24.5271	617.7923	0.40584	-3.1307	-0.18607	-1.12	0.10288	-2.9362	-0.0592	0.0182	-0.0073	-0.0462	0.0165	0.9585
37.763	30.7054	707.7477	45.916	-247.8492	-22.9388	620.4215	0.52772	-4.9875	-0.092959	-1.7748	-0.048692	-4.8547	-0.0592	0.0182	-0.0073	-0.0462	0.0165	0.9585
37.7804	34.1679	719.7178	46.3046	-251.9624	-21.9742	626.8281	0.80622	-6.6655	0.080996	-2.3659	-0.34579	-6.6191	-0.0592	0.0182	-0.0073	-0.0462	0.0165	0.9585
37.7977	37.3524	733.3369	47.185	-256.631	-21.5385	634.7604	1.269	-7.5403	0.34519	-2.6683	-0.8032	-7.6043	-0.0592	0.0182	-0.0073	-0.0462	0.0165	0.9585
37.8151	40.2673	745.882	48.406	-260.8824	-21.5054	641.8679	1.9273	-6.6678	0.69409	-2.3414	-1.4102	-6.857	-0.0592	0.0182	-0.0073	-0.0462	0.0165	0.9585
37.8324	42.9372	754.8358	49.809	-263.8109	-21.7402	646.0064	2.7601	-2.7552	1.0966	-0.92085	-2.1213	-3.0668	-0.0592	0.0182	-0.0073	-0.0462	0.0165	0.9585
37.8498	45.3877	758.1997	51.2485	-264.693	-22.1202	645.5115	3.6874	5.8013	1.4867	2.166	-2.8376	5.4021	-0.0592	0.0182	-0.0073	-0.0462	0.0165	0.9585
37.8671	47.6127	754.6574	52.5929	-263.0522	-22.5407	639.3434	4.5386	20.7616	1.7503	7.5436	-3.379	20.3527	-0.0592	0.0182	-0.0073	-0.0462	0.0165	0.9585
37.8845	49.5432	743.5799	53.6933	-258.6693	-22.9019	627.0816	5.024	43.7107	1.7102	15.7702	-3.4601	43.4364	-0.0592	0.0182	-0.0073	-0.0462	0.0165	0.9585
37.9019	51.0322	724.8993	54.3547	-251.5492	-23.096	608.8024	4.677	75.5285	1.1201	27.1489	-2.6649	75.6247	-0.0592	0.0182	-0.0073	-0.0462	0.0165	0.9585
37.9192	51.8747	698.9538	54.3458	-241.8641	-23.0067	584.9245	2.7721	115.7569	-0.28744	41.4994	-0.46669	116.5649	-0.0592	0.0182	-0.0073	-0.0462	0.0165	0.9585
37.9366	51.8591	666.3749	53.4743	-229.9014	-22.5505	556.0769	-1.1804	162.0301	-2.7369	57.9534	3.5355	163.9738	-0.0592	0.0182	-0.0073	-0.0462	0.0165	0.9585
37.9539	50.8634	628.1484	51.6615	-216.0689	-21.7012	523.1031	-6.8929	210.2109	-6.2284	75.0215	9.2341	213.6855	-0.0592	0.0182	-0.0073	-0.0462	0.0165	0.9585
37.9713	48.9306	585.7442	48.9873	-200.9281	-20.5009	487.1545	-13.64	256.6854	-10.3449	91.421	15.9407	261.9694	-0.0592	0.0182	-0.0073	-0.0462	0.0165	0.9585
37.9886	46.2507	540.9108	45.6741	-185.1128	-19.0531	449.5526	-20.6748	300.0029	-14.5789	106.6424	22.8778	307.2595	-0.0592	0.0182	-0.0073	-0.0462	0.0165	0.9585
38.006	43.0771	495.2236	41.9746	-169.17	-17.4597	411.4694	-27.341	339.9506	-18.5678	120.6143	29.4502	349.2326	-0.0592	0.0182	-0.0073	-0.0462	0.0165	0.9585
38.0234	39.6553	449.9229	38.0818	-153.5104	-15.7775	373.8255	-33.145	376.7454	-22.157	133.408	35.3299	387.9896	-0.0592	0.0182	-0.0073	-0.0462	0.0165	0.9585
38.0407	36.2104	405.9777	34.1509	-138.438	-14.0448	337.3522	-37.7821	410.6898	-25.3922	145.1157	40.4599	423.7342	-0.0592	0.0182	-0.0073	-0.0462	0.0165	0.9585
38.0581	32.9201	364.1487	30.3227	-124.1777	-12.309	302.642	-41.1206	441.9838	-28.4175	155.7938	44.9456	456.5928	-0.0592	0.0182	-0.0073	-0.0462	0.0165	0.9585
